<mxfile host="app.diagrams.net" agent="Mozilla/5.0 (Windows NT 10.0; Win64; x64; rv:131.0) Gecko/20100101 Firefox/131.0" version="24.8.3">
  <diagram name="Page-1" id="XOkjp1cbz1iF0P1AoOvy">
    <mxGraphModel dx="602" dy="279" grid="0" gridSize="10" guides="1" tooltips="1" connect="1" arrows="1" fold="1" page="1" pageScale="1" pageWidth="850" pageHeight="1100" math="0" shadow="0">
      <root>
        <mxCell id="0" />
        <mxCell id="1" parent="0" />
        <mxCell id="RqhHFiK4DaIbMHFHuE9f-5" value="&lt;div align=&quot;justify&quot;&gt;&amp;nbsp; ID&amp;nbsp;&amp;nbsp; &amp;nbsp; Name&lt;/div&gt;&lt;div align=&quot;justify&quot;&gt;&lt;br&gt;&lt;/div&gt;&lt;div align=&quot;justify&quot;&gt;&amp;nbsp;1 &amp;nbsp;&amp;nbsp;&amp;nbsp;&amp;nbsp;&amp;nbsp;&amp;nbsp; Tambe &lt;br&gt;&amp;nbsp;2&amp;nbsp;&amp;nbsp; &amp;nbsp; &amp;nbsp;&amp;nbsp; Bandeko&lt;br&gt;&amp;nbsp;3&amp;nbsp;&amp;nbsp; &amp;nbsp; &amp;nbsp;&amp;nbsp; Abanda&lt;br&gt;&amp;nbsp;4&amp;nbsp;&amp;nbsp; &amp;nbsp; &amp;nbsp;&amp;nbsp; Karinanda&lt;br&gt;&amp;nbsp;5&amp;nbsp;&amp;nbsp; &amp;nbsp; &amp;nbsp;&amp;nbsp; Dri&lt;/div&gt;&lt;div align=&quot;justify&quot;&gt;&amp;nbsp;6&amp;nbsp;&amp;nbsp;&amp;nbsp;&amp;nbsp;&amp;nbsp;&amp;nbsp;&amp;nbsp; Kamba&lt;br&gt;&lt;/div&gt;&lt;div align=&quot;justify&quot;&gt;&amp;nbsp;111 &amp;nbsp;&amp;nbsp;&amp;nbsp; Dept_HR&lt;/div&gt;&lt;div align=&quot;justify&quot;&gt;&amp;nbsp;222 &amp;nbsp;&amp;nbsp; Dept_Sales&lt;/div&gt;&lt;div align=&quot;justify&quot;&gt;&amp;nbsp;333 &amp;nbsp;&amp;nbsp; Dept_Marketx&amp;nbsp;&amp;nbsp; &amp;nbsp;&amp;nbsp; &lt;br&gt;&lt;/div&gt;" style="shape=internalStorage;whiteSpace=wrap;html=1;backgroundOutline=1;dx=30;dy=30;" parent="1" vertex="1">
          <mxGeometry x="430" y="40" width="130" height="180" as="geometry" />
        </mxCell>
        <mxCell id="RqhHFiK4DaIbMHFHuE9f-6" value="&lt;div&gt;Phone ID&amp;nbsp;&lt;/div&gt;&lt;div&gt;&lt;br&gt;&lt;/div&gt;&lt;div&gt;11111&amp;nbsp;&amp;nbsp;&amp;nbsp; 1 11111&amp;nbsp;&amp;nbsp;&amp;nbsp; 1&lt;br&gt;&lt;/div&gt;22222&amp;nbsp;&amp;nbsp;&amp;nbsp; 2&lt;br&gt;33333&amp;nbsp;&amp;nbsp;&amp;nbsp; 3&lt;br&gt;44444&amp;nbsp;&amp;nbsp;&amp;nbsp; 4&lt;br&gt;&lt;div&gt;55555&amp;nbsp;&amp;nbsp;&amp;nbsp; 5&lt;/div&gt;&lt;div&gt;66666&amp;nbsp;&amp;nbsp;&amp;nbsp; 6&lt;/div&gt;&lt;div&gt;&amp;nbsp; 77777&amp;nbsp;&amp;nbsp; 111&amp;nbsp;&amp;nbsp; 77777&amp;nbsp;&amp;nbsp; 111&amp;nbsp; 99999 &amp;nbsp; 333&lt;br&gt;&lt;/div&gt;" style="shape=internalStorage;whiteSpace=wrap;html=1;backgroundOutline=1;dx=50;dy=20;" parent="1" vertex="1">
          <mxGeometry x="310" y="40" width="80" height="180" as="geometry" />
        </mxCell>
        <mxCell id="RqhHFiK4DaIbMHFHuE9f-7" value="&lt;div align=&quot;justify&quot;&gt;C.Id &amp;nbsp; &amp;nbsp; P.iD &amp;nbsp; &amp;nbsp; &amp;nbsp; &amp;nbsp;&amp;nbsp; Clubs-Phone&amp;nbsp;&amp;nbsp;&amp;nbsp; &lt;br&gt;&lt;/div&gt;&lt;div align=&quot;justify&quot;&gt;&lt;br&gt;&lt;/div&gt;&lt;div align=&quot;justify&quot;&gt;&lt;strike&gt;111&lt;/strike&gt;&amp;nbsp;&amp;nbsp;&amp;nbsp; &amp;nbsp;&amp;nbsp; 1&amp;nbsp;&amp;nbsp;&amp;nbsp;&amp;nbsp;&amp;nbsp;&amp;nbsp;&amp;nbsp;&amp;nbsp;&amp;nbsp; &amp;nbsp; &amp;nbsp; &lt;strike&gt;77777&lt;/strike&gt;&lt;br&gt;&lt;/div&gt;&lt;div align=&quot;justify&quot;&gt;&lt;strike&gt;111&lt;/strike&gt; &amp;nbsp;&amp;nbsp;&amp;nbsp; &amp;nbsp; 2 &amp;nbsp;&amp;nbsp; &amp;nbsp; &amp;nbsp; &amp;nbsp; &amp;nbsp; &amp;nbsp; &lt;strike&gt;77777&lt;br&gt;222&lt;/strike&gt;&amp;nbsp; &amp;nbsp;&amp;nbsp;&amp;nbsp; 3&amp;nbsp;&amp;nbsp;&amp;nbsp; &amp;nbsp; &amp;nbsp; &amp;nbsp; &amp;nbsp; &amp;nbsp; &lt;strike&gt;88888&lt;/strike&gt;&lt;br&gt;&lt;strike&gt;222&lt;/strike&gt;&amp;nbsp;&amp;nbsp;&amp;nbsp;&amp;nbsp;&amp;nbsp; 4 &amp;nbsp; &amp;nbsp;&amp;nbsp;&amp;nbsp;&amp;nbsp;&amp;nbsp;&amp;nbsp;&amp;nbsp;&amp;nbsp;&amp;nbsp;&amp;nbsp; &lt;strike&gt;88888&lt;/strike&gt;&lt;br&gt;&lt;strike&gt;333&lt;/strike&gt; &amp;nbsp;&amp;nbsp;&amp;nbsp;&amp;nbsp; 5&amp;nbsp;&amp;nbsp; &amp;nbsp; &amp;nbsp; &amp;nbsp; &amp;nbsp; &amp;nbsp;&amp;nbsp; &lt;strike&gt;99999&lt;/strike&gt;&lt;br&gt;&lt;strike&gt;333&lt;/strike&gt; &amp;nbsp;&amp;nbsp;&amp;nbsp;&amp;nbsp; 6 &amp;nbsp; &amp;nbsp; &amp;nbsp; &amp;nbsp;&amp;nbsp; &amp;nbsp;&amp;nbsp;&amp;nbsp; &lt;strike&gt;99999&lt;/strike&gt;&lt;br&gt;&lt;/div&gt;" style="shape=internalStorage;whiteSpace=wrap;html=1;backgroundOutline=1;dx=40;dy=20;" parent="1" vertex="1">
          <mxGeometry x="40" y="40" width="200" height="240" as="geometry" />
        </mxCell>
        <mxCell id="RqhHFiK4DaIbMHFHuE9f-9" value="" style="endArrow=none;html=1;rounded=0;exitX=0.445;exitY=0.994;exitDx=0;exitDy=0;exitPerimeter=0;" parent="1" source="RqhHFiK4DaIbMHFHuE9f-7" edge="1">
          <mxGeometry width="50" height="50" relative="1" as="geometry">
            <mxPoint x="130" y="160" as="sourcePoint" />
            <mxPoint x="130" y="40" as="targetPoint" />
          </mxGeometry>
        </mxCell>
        <mxCell id="-NmnWtVq6lU5C43_mMeo-4" value="" style="rounded=0;whiteSpace=wrap;html=1;fillColor=#D5E8D4;gradientColor=none;opacity=30;" vertex="1" parent="1">
          <mxGeometry x="300" y="70" width="100" height="30" as="geometry" />
        </mxCell>
        <mxCell id="-NmnWtVq6lU5C43_mMeo-10" value="" style="rounded=0;whiteSpace=wrap;html=1;fillColor=#dae8fc;opacity=30;strokeColor=#6c8ebf;" vertex="1" parent="1">
          <mxGeometry x="300" y="170" width="100" height="30" as="geometry" />
        </mxCell>
        <mxCell id="-NmnWtVq6lU5C43_mMeo-13" value="" style="rounded=0;whiteSpace=wrap;html=1;fillColor=#dae8fc;strokeColor=#6c8ebf;opacity=30;" vertex="1" parent="1">
          <mxGeometry x="430" y="170" width="130" height="10" as="geometry" />
        </mxCell>
        <mxCell id="-NmnWtVq6lU5C43_mMeo-15" value="" style="endArrow=classic;html=1;rounded=0;entryX=1;entryY=0.5;entryDx=0;entryDy=0;exitX=0;exitY=0.75;exitDx=0;exitDy=0;" edge="1" parent="1" source="RqhHFiK4DaIbMHFHuE9f-5" target="-NmnWtVq6lU5C43_mMeo-10">
          <mxGeometry width="50" height="50" relative="1" as="geometry">
            <mxPoint x="360" y="290" as="sourcePoint" />
            <mxPoint x="410" y="240" as="targetPoint" />
          </mxGeometry>
        </mxCell>
        <mxCell id="-NmnWtVq6lU5C43_mMeo-16" value="" style="endArrow=classic;html=1;rounded=0;entryX=1;entryY=0.5;entryDx=0;entryDy=0;exitX=0;exitY=0.5;exitDx=0;exitDy=0;" edge="1" parent="1" source="-NmnWtVq6lU5C43_mMeo-17">
          <mxGeometry width="50" height="50" relative="1" as="geometry">
            <mxPoint x="460" y="90" as="sourcePoint" />
            <mxPoint x="400" y="88.5" as="targetPoint" />
          </mxGeometry>
        </mxCell>
        <mxCell id="-NmnWtVq6lU5C43_mMeo-17" value="" style="rounded=0;whiteSpace=wrap;html=1;fillColor=#d5e8d4;strokeColor=#82b366;opacity=30;" vertex="1" parent="1">
          <mxGeometry x="425" y="80" width="130" height="10" as="geometry" />
        </mxCell>
        <mxCell id="-NmnWtVq6lU5C43_mMeo-18" value="" style="shape=flexArrow;endArrow=classic;html=1;rounded=0;exitX=0.98;exitY=0.383;exitDx=0;exitDy=0;exitPerimeter=0;" edge="1" parent="1">
          <mxGeometry width="50" height="50" relative="1" as="geometry">
            <mxPoint x="247" y="130.96" as="sourcePoint" />
            <mxPoint x="307" y="129.04" as="targetPoint" />
          </mxGeometry>
        </mxCell>
      </root>
    </mxGraphModel>
  </diagram>
</mxfile>
